
      <svg data-logo="logo" xmlns="http://www.w3.org/2000/svg" viewBox="0 0 151 42">
        <g id="logogram" transform="translate(0, 1) rotate(0) "><path d="M40 13.334C40.0001 10.648 39.1891 8.02462 37.673 5.80742C36.1569 3.59023 34.0065 1.8826 31.5035 0.908243C29.0005 -0.0661298 26.2615 -0.261811 23.6455 0.346813C21.0293 0.955437 18.658 2.34 16.8421 4.31914H0V39.8657H35.5601V23.253C36.9557 22.0047 38.0726 20.4761 38.8377 18.7669C39.6027 17.0577 39.9988 15.2066 40 13.334ZM33.1579 13.334C33.1606 14.621 32.7814 15.88 32.0683 16.9515C31.3551 18.0229 30.3402 18.8588 29.1518 19.3532C27.9634 19.8476 26.6552 19.9784 25.3924 19.7289C24.1298 19.4795 22.9695 18.861 22.0584 17.9518C21.1474 17.0426 20.5266 15.8837 20.2745 14.6214C20.0224 13.3594 20.1505 12.0507 20.6424 10.8614C21.1343 9.67199 21.968 8.65529 23.0379 7.93995C24.108 7.2246 25.3661 6.84277 26.6532 6.84275C28.376 6.84275 30.0285 7.52622 31.2479 8.74317C32.4675 9.96012 33.1544 11.6112 33.1579 13.334ZM28.7179 33.0236H6.84211V11.1612H13.5088C13.38 11.8785 13.3123 12.6054 13.3063 13.334C13.31 16.8727 14.7173 20.2654 17.2196 22.7677C19.7217 25.2699 23.1144 26.6773 26.6532 26.6808C27.3451 26.6772 28.0355 26.6185 28.7179 26.5054V33.0236Z" fill="#394149"/></g>
        <g id="logotype" transform="translate(46, 1)"><path fill="#111111" d="M17.25 33L17.25 33L10.67 33L10.67 28.51L17.01 28.51Q19.47 28.51 21.13 27.63Q22.80 26.76 23.64 24.93Q24.47 23.10 24.47 20.25L24.47 20.25Q24.47 17.41 23.63 15.59Q22.78 13.77 21.13 12.90Q19.48 12.03 17.04 12.03L17.04 12.03L10.55 12.03L10.55 7.54L17.35 7.54Q21.18 7.54 23.94 9.07Q26.70 10.60 28.18 13.44Q29.67 16.29 29.67 20.25L29.67 20.25Q29.67 24.23 28.18 27.09Q26.70 29.94 23.91 31.47Q21.12 33 17.25 33ZM8.31 7.54L13.52 7.54L13.52 33L8.31 33L8.31 7.54ZM39.73 33.38L39.73 33.38Q36.86 33.38 34.76 32.14Q32.66 30.90 31.52 28.68Q30.39 26.47 30.39 23.53L30.39 23.53Q30.39 20.56 31.52 18.35Q32.66 16.13 34.76 14.89Q36.86 13.65 39.73 13.65L39.73 13.65Q42.62 13.65 44.71 14.89Q46.81 16.13 47.94 18.35Q49.08 20.56 49.08 23.53L49.08 23.53Q49.08 26.47 47.94 28.68Q46.81 30.90 44.71 32.14Q42.62 33.38 39.73 33.38ZM39.73 29.34L39.73 29.34Q41.10 29.34 42.02 28.58Q42.95 27.82 43.41 26.50Q43.87 25.17 43.87 23.52L43.87 23.52Q43.87 21.82 43.41 20.51Q42.95 19.19 42.02 18.44Q41.10 17.69 39.73 17.69L39.73 17.69Q38.37 17.69 37.45 18.44Q36.54 19.19 36.08 20.51Q35.61 21.82 35.61 23.52L35.61 23.52Q35.61 25.17 36.08 26.50Q36.54 27.82 37.45 28.58Q38.37 29.34 39.73 29.34ZM58.92 33.38L58.92 33.38Q56.03 33.38 53.94 32.14Q51.85 30.90 50.71 28.68Q49.58 26.47 49.58 23.53L49.58 23.53Q49.58 20.56 50.71 18.35Q51.85 16.13 53.94 14.89Q56.03 13.65 58.92 13.65L58.92 13.65Q60.62 13.65 62.05 14.10Q63.49 14.54 64.60 15.36Q65.71 16.18 66.43 17.36Q67.14 18.54 67.42 20.01L67.42 20.01L62.65 20.90Q62.49 20.15 62.17 19.56Q61.85 18.97 61.38 18.55Q60.92 18.13 60.32 17.91Q59.71 17.69 58.97 17.69L58.97 17.69Q57.61 17.69 56.68 18.42Q55.74 19.16 55.27 20.47Q54.80 21.79 54.80 23.52L54.80 23.52Q54.80 25.22 55.27 26.53Q55.74 27.84 56.68 28.59Q57.61 29.34 58.97 29.34L58.97 29.34Q59.71 29.34 60.32 29.11Q60.94 28.88 61.42 28.45Q61.90 28.01 62.22 27.39Q62.55 26.78 62.68 26.01L62.68 26.01L67.45 26.88Q67.18 28.40 66.46 29.59Q65.74 30.78 64.63 31.63Q63.52 32.49 62.08 32.93Q60.63 33.38 58.92 33.38ZM76.28 33.38L76.28 33.38Q73.98 33.38 72.20 32.72Q70.42 32.06 69.29 30.80Q68.17 29.55 67.84 27.77L67.84 27.77L72.61 26.95Q72.99 28.28 73.93 28.95Q74.87 29.62 76.44 29.62L76.44 29.62Q77.89 29.62 78.75 29.06Q79.60 28.51 79.60 27.65L79.60 27.65Q79.60 26.90 78.99 26.42Q78.39 25.94 77.14 25.69L77.14 25.69L73.84 25.00Q71.07 24.44 69.70 23.08Q68.34 21.72 68.34 19.58L68.34 19.58Q68.34 17.74 69.35 16.41Q70.35 15.09 72.15 14.37Q73.94 13.65 76.37 13.65L76.37 13.65Q78.63 13.65 80.28 14.28Q81.94 14.90 82.97 16.05Q83.99 17.19 84.33 18.75L84.33 18.75L79.79 19.55Q79.50 18.58 78.67 17.95Q77.84 17.33 76.44 17.33L76.44 17.33Q75.17 17.33 74.32 17.86Q73.46 18.39 73.46 19.26L73.46 19.26Q73.46 19.99 74.02 20.49Q74.58 20.99 75.93 21.26L75.93 21.26L79.36 21.94Q82.13 22.51 83.48 23.78Q84.83 25.05 84.83 27.10L84.83 27.10Q84.83 28.98 83.74 30.39Q82.64 31.80 80.72 32.59Q78.80 33.38 76.28 33.38ZM85.89 39.77L85.89 39.77L87.07 35.91L87.70 36.06Q88.72 36.33 89.53 36.21Q90.33 36.09 90.82 35.56Q91.30 35.03 91.41 34.08L91.41 34.08L91.54 33.05L84.37 13.89L89.82 13.89L93.03 23.81Q93.61 25.69 93.98 27.57Q94.35 29.45 94.82 31.50L94.82 31.50L93.63 31.50Q94.09 29.45 94.55 27.56Q95.01 25.67 95.63 23.81L95.63 23.81L98.98 13.89L104.36 13.89L96.24 35.26Q95.66 36.79 94.76 37.92Q93.85 39.05 92.50 39.67Q91.15 40.28 89.24 40.28L89.24 40.28Q88.21 40.28 87.32 40.14Q86.43 39.99 85.89 39.77Z"/></g>
        
      </svg>
    